<svg xmlns="http://www.w3.org/2000/svg" viewBox="0 0 32 32" width="32" height="32">
  <!-- Background -->
  <rect width="32" height="32" fill="#4f46e5" rx="6"/>
  
  <!-- People/Team icon - more visible -->
  <g fill="white">
    <!-- Left person -->
    <circle cx="7" cy="7" r="2.5"/>
    <path d="M 5 11 L 5 16 Q 5 17 6 17 L 8 17 Q 9 17 9 16 L 9 11 Z"/>
    
    <!-- Center person (larger) -->
    <circle cx="16" cy="5.5" r="3.2"/>
    <path d="M 12.5 11 L 12.5 18 Q 12.5 19.5 14 19.5 L 18 19.5 Q 19.5 19.5 19.5 18 L 19.5 11 Z"/>
    
    <!-- Right person -->
    <circle cx="25" cy="7" r="2.5"/>
    <path d="M 23 11 L 23 16 Q 23 17 24 17 L 26 17 Q 27 17 27 16 L 27 11 Z"/>
    
    <!-- Bottom connecting line -->
    <rect x="4" y="20" width="24" height="1.5" rx="0.75" fill="white" opacity="0.9"/>
  </g>
</svg>